/vscmnt/brussel_pixiu_data/_data_brussel/112/vsc11236/PredSimResults/SUBJ09mtu3D/worker7.mot
version=1
nRows=6
nColumns=50
inDegrees=yes
endheader
                time	         pelvis_tilt	         pelvis_list	     pelvis_rotation	           pelvis_tx	           pelvis_ty	           pelvis_tz	       hip_flexion_r	     hip_adduction_r	      hip_rotation_r	        knee_angle_r	       ankle_angle_r	         mtp_angle_r	       hip_flexion_l	     hip_adduction_l	      hip_rotation_l	        knee_angle_l	       ankle_angle_l	         mtp_angle_l	    lumbar_extension	      lumbar_bending	     lumbar_rotation	 ercspn_r/activation	 intobl_r/activation	 extobl_r/activation	    abd_r/activation	    add_r/activation	hamstrings_r/activation	bifemsh_r/activation	glut_max_r/activation	iliopsoas_r/activation	rect_fem_r/activation	  vasti_r/activation	gastroc_r/activation	 soleus_r/activation	tib_ant_r/activation	 ercspn_l/activation	 intobl_l/activation	 extobl_l/activation	    abd_l/activation	    add_l/activation	hamstrings_l/activation	bifemsh_l/activation	glut_max_l/activation	iliopsoas_l/activation	rect_fem_l/activation	  vasti_l/activation	gastroc_l/activation	 soleus_l/activation	tib_ant_l/activation	
          0.62287839	         -4.04999253	          0.71148611	         -8.68408724	          0.77236920	          0.98964939	          0.00443667	        -14.49196304	         -2.12595619	         -4.02990584	         -9.21307676	          4.05938024	         35.94485652	         28.55601437	         -1.95226067	         -9.03634158	         -5.99367584	          4.29295428	          0.24431378	        -13.39289146	          1.19221819	          7.78535370	          0.03403576	          0.01000000	          0.01000000	          0.03101663	          0.01207627	          0.01378143	          0.11917992	          0.01243104	          0.01000640	          0.01000002	          0.01000000	          0.30704225	          0.21880291	          0.01372272	          0.03341073	          0.16138026	          0.02568399	          0.01087722	          0.21036212	          0.04785676	          0.13932526	          0.07720675	          0.15187055	          0.01295328	          0.01000000	          0.01761154	          0.01000000	          0.29711033	
          0.63533595	         -4.10156771	          0.81657527	         -8.67583862	          0.79212765	          0.98753597	          0.00373293	        -15.13944938	         -2.44532901	         -4.47310108	         -9.87951701	          2.89870300	         37.54654307	         28.48892812	         -1.78887159	         -9.11793471	         -7.75666825	          3.86109485	          0.20767899	        -12.88763340	          0.78584085	          8.02712329	          0.02818403	          0.00999999	          0.01000000	          0.02568397	          0.01000002	          0.01207630	          0.09868942	          0.01029379	          0.01000000	          0.01000001	          0.01000011	          0.28050670	          0.19649316	          0.01136338	          0.02766645	          0.13363429	          0.02126816	          0.07269137	          0.17422881	          0.05905401	          0.11537119	          0.09775982	          0.12575958	          0.01072624	          0.01000000	          0.01458361	          0.01207625	          0.33749825	
          0.64779352	         -4.13461492	          0.93056702	         -8.63173037	          0.81210950	          0.98576475	          0.00293986	        -15.58312113	         -2.79185843	         -4.93837342	        -10.94631132	          1.62370789	         39.09453356	         28.31843077	         -1.60647725	         -9.18741552	         -9.37925578	          3.30187159	          0.20032078	        -12.37667953	          0.36999132	          8.23326428	          0.04135170	          0.00999999	          0.00999999	          0.02126815	          0.01000000	          0.01000004	          0.08172184	          0.00999999	          0.01000034	          0.01000004	          0.00999999	          0.24193360	          0.16846582	          0.00999999	          0.03366965	          0.11065866	          0.01761155	          0.12406930	          0.18836868	          0.05067900	          0.09553552	          0.13923544	          0.10413784	          0.00999999	          0.01000000	          0.01207626	          0.00999999	          0.38157330	
          0.66025109	         -4.14988129	          1.04169124	         -8.55264691	          0.83198978	          0.98453114	          0.00204352	        -15.71435023	         -3.16209432	         -5.41988433	        -12.57388006	          0.26730430	         40.45595132	         28.18673342	         -1.42079812	         -9.25813075	        -11.08177769	          2.72921831	          0.16814579	        -11.89954601	         -0.04236085	          8.40213507	          0.08807882	          0.00999999	          0.00999999	          0.01761153	          0.03546119	          0.01686789	          0.06767148	          0.01000000	          0.01000002	          0.01000001	          0.01236373	          0.20033816	          0.13950164	          0.00999999	          0.04249952	          0.09163321	          0.01458361	          0.17216207	          0.24084286	          0.04771475	          0.07911018	          0.14212585	          0.08623351	          0.01000000	          0.06457919	          0.01000001	          0.01000000	          0.40191223	
          0.67270866	         -4.14825278	          1.14995610	         -8.44636013	          0.85157770	          0.98395354	          0.00105577	        -15.45322710	         -3.56621510	         -5.92199705	        -14.88033666	         -1.12563301	         41.42160869	         28.11291666	         -1.23356195	         -9.30205411	        -12.94018569	          2.46535895	          0.13081874	        -11.47379648	         -0.45125906	          8.53665338	          0.10671990	          0.01000000	          0.00999999	          0.01458360	          0.12271220	          0.02419249	          0.05603678	          0.00999999	          0.01000012	          0.01000000	          0.01023805	          0.16589419	          0.11551724	          0.00999999	          0.04009167	          0.07587879	          0.01207626	          0.19875098	          0.26694529	          0.04664253	          0.06550884	          0.15511771	          0.07140746	          0.01000000	          0.16830632	          0.01000001	          0.01000000	          0.40301178	
          0.68516622	         -4.13260264	          1.24367317	         -8.31250261	          0.87072153	          0.98414430	          0.00000591	        -14.73251896	         -4.00139402	         -6.49245976	        -17.96753786	         -2.46698023	         41.61045542	         28.00653736	         -1.04280920	         -9.31627265	        -14.77537308	          2.52750890	          0.09731041	        -11.11367543	         -0.84533816	          8.63413694	          0.10579931	          0.01000000	          0.00999999	          0.01207625	          0.18824919	          0.02321986	          0.04640243	          0.00999999	          0.01000005	          0.01000000	          0.01000000	          0.13737214	          0.09565646	          0.00999999	          0.03319876	          0.06283302	          0.01000000	          0.20656265	          0.30034815	          0.04932026	          0.05424596	          0.15556095	          0.05913043	          0.01000000	          0.21023113	          0.01000000	          0.01000000	          0.38089408	
